<svg width="14" height="15" viewBox="0 0 14 15" fill="none" xmlns="http://www.w3.org/2000/svg">
<path d="M7 0.5L11.1145 1.83688L13.6574 5.33688V9.66312L11.1145 13.1631L7 14.5L2.8855 13.1631L0.342604 9.66312V5.33688L2.8855 1.83688L7 0.5Z" fill="#2E98E8"/>
<path fill-rule="evenodd" clip-rule="evenodd" d="M5.61441 10.3991C5.4807 10.3728 5.35199 10.3117 5.24254 10.2149L3.2111 8.41822C2.8827 8.12778 2.85194 7.62611 3.14238 7.29772C3.43282 6.96932 3.93449 6.93856 4.26289 7.229L5.96774 8.73683L9.79957 5.12193C10.1275 4.81254 10.6442 4.82759 10.9536 5.15555C11.263 5.48352 11.248 6.00021 10.92 6.3096L6.65527 10.3329C6.36465 10.6071 5.92586 10.6265 5.61441 10.3991Z" fill="white"/>
</svg>
