<svg width="24" height="24" viewBox="0 0 24 24" fill="none" xmlns="http://www.w3.org/2000/svg">
<path fill-rule="evenodd" clip-rule="evenodd" d="M15.1328 10.7226C15.1328 12.718 13.5152 14.3355 11.5199 14.3355C9.52454 14.3355 7.90698 12.718 7.90698 10.7226C7.90698 8.72726 9.52454 7.10971 11.5199 7.10971C13.5152 7.10971 15.1328 8.72726 15.1328 10.7226ZM14.6726 14.7481C13.804 15.4293 12.7094 15.8355 11.5199 15.8355C8.69611 15.8355 6.40698 13.5464 6.40698 10.7226C6.40698 7.89884 8.69611 5.60971 11.5199 5.60971C14.3437 5.60971 16.6328 7.89884 16.6328 10.7226C16.6328 11.9474 16.2022 13.0715 15.4841 13.952C15.6545 13.9662 15.821 14.0386 15.9514 14.169L18.1044 16.322C18.3973 16.6149 18.3973 17.0898 18.1044 17.3827C17.8115 17.6755 17.3366 17.6755 17.0437 17.3827L14.8907 15.2297C14.7567 15.0956 14.684 14.9235 14.6726 14.7481Z" fill="#66696F"/>
</svg>
