<svg width="24" height="24" viewBox="0 0 24 24" fill="none" xmlns="http://www.w3.org/2000/svg">
<path d="M5.69331 9.17202C4.80139 5.38137 7.67749 1.75 11.5717 1.75H12.4283C16.3225 1.75 19.1986 5.38137 18.3067 9.17202C18.2441 9.438 18.2734 9.71732 18.3897 9.96454L19.0683 9.6452L18.3897 9.96454L19.9699 13.3225C20.1544 13.7144 20.25 14.1422 20.25 14.5754C20.25 15.7607 19.5509 16.7382 18.5105 16.9941C16.9986 17.3659 14.7669 17.75 12 17.75C9.23306 17.75 7.00142 17.3659 5.48952 16.9941C4.44915 16.7382 3.75 15.7607 3.75 14.5754C3.75 14.1422 3.84563 13.7144 4.03005 13.3225L5.61029 9.96454C5.72663 9.71731 5.75589 9.43799 5.69331 9.17202Z" stroke="#686C6F" stroke-width="1.5"/>
<path d="M14.5 21C14.4001 21.156 14.2369 21.3228 13.9972 21.4777C13.758 21.6324 13.4583 21.7647 13.1108 21.8578C12.7639 21.9507 12.3858 22 12 22C11.6142 22 11.2361 21.9507 10.8892 21.8578C10.5417 21.7647 10.242 21.6324 10.0028 21.4777C9.76312 21.3228 9.59994 21.156 9.5 21" stroke="#686C6F" stroke-width="1.5" stroke-linecap="round"/>
</svg>
