<svg width="24" height="25" viewBox="0 0 24 25" fill="none" xmlns="http://www.w3.org/2000/svg">
<path fill-rule="evenodd" clip-rule="evenodd" d="M16.8241 11.5694L16.4129 11.973L20.3615 15.6397C21.8365 17.0093 21.8019 19.3545 20.2871 20.6799C18.9789 21.8246 17.0174 21.7956 15.7436 20.6128L11.5812 16.7478L11.4942 16.8389C9.74973 18.6653 6.84401 18.6987 5.05806 16.9127L3.69311 15.5478C1.93575 13.7904 1.93575 10.9412 3.69311 9.18382L9.09532 3.78161C10.8527 2.02425 13.7019 2.02425 15.4593 3.78161L16.8537 5.17607C18.6226 6.94496 18.6093 9.81698 16.8241 11.5694ZM12.6362 15.6804L15.3413 13.025L19.3409 16.7388C20.1638 17.503 20.1445 18.8115 19.2993 19.5511C18.5694 20.1897 17.475 20.1736 16.7643 19.5136L12.6362 15.6804ZM11.5358 14.6586L11 15.1846L10.4095 15.8028C9.2465 17.0205 7.30935 17.0427 6.11872 15.8521L4.75377 14.4871C3.58219 13.3156 3.58219 11.4161 4.75377 10.2445L10.156 4.84227C11.3276 3.6707 13.227 3.6707 14.3986 4.84227L15.7931 6.23673C16.9723 7.41599 16.9635 9.33067 15.7733 10.4989L11.5358 14.6586ZM2.75 20.6846C2.33579 20.6846 2 21.0203 2 21.4346C2 21.8488 2.33579 22.1846 2.75 22.1846H8.25C8.66421 22.1846 9 21.8488 9 21.4346C9 21.0203 8.66421 20.6846 8.25 20.6846H2.75Z" fill="#686C6F"/>
</svg>
