<svg width="24" height="24" viewBox="0 0 24 24" fill="none" xmlns="http://www.w3.org/2000/svg">
<mask id="path-1-inside-1_1_75" fill="white">
<path fill-rule="evenodd" clip-rule="evenodd" d="M10.0606 6.62561L11.1213 7.68625L12.1819 6.62561C13.6828 5.12479 16.1161 5.1248 17.6169 6.62563C18.8347 7.84339 19.0644 9.67508 18.306 11.1244C17.8725 11.2566 17.4641 11.4942 17.1213 11.837C16.0052 10.721 14.1957 10.721 13.0796 11.837C11.9635 12.9531 11.9635 14.7626 13.0796 15.8787L13.0851 15.8842L13.4393 16.2383L11.1213 18.5563L4.63588 12.0709L4.6345 12.0695L4.62563 12.0606L4.62509 12.0601C3.12479 10.5592 3.12497 8.12628 4.62563 6.62563C6.12646 5.1248 8.55978 5.12479 10.0606 6.62561ZM14.4999 17.299L11.751 20.0479C11.4032 20.3957 10.8394 20.3957 10.4916 20.0479L3.57522 13.1315L3.56497 13.1213C1.47834 11.0347 1.47834 7.65159 3.56497 5.56497C5.65158 3.47835 9.03464 3.47835 11.1213 5.56494C13.2079 3.47834 16.591 3.47835 18.6776 5.56497C20.1781 7.06549 20.5996 9.23648 19.942 11.1136C20.389 11.2435 20.8105 11.4846 21.1629 11.837C22.279 12.9531 22.279 14.7626 21.163 15.8787L17.4581 19.5836C17.2721 19.7696 16.9705 19.7696 16.7845 19.5836L14.4999 17.299Z"/>
</mask>
<path fill-rule="evenodd" clip-rule="evenodd" d="M10.0606 6.62561L11.1213 7.68625L12.1819 6.62561C13.6828 5.12479 16.1161 5.1248 17.6169 6.62563C18.8347 7.84339 19.0644 9.67508 18.306 11.1244C17.8725 11.2566 17.4641 11.4942 17.1213 11.837C16.0052 10.721 14.1957 10.721 13.0796 11.837C11.9635 12.9531 11.9635 14.7626 13.0796 15.8787L13.0851 15.8842L13.4393 16.2383L11.1213 18.5563L4.63588 12.0709L4.6345 12.0695L4.62563 12.0606L4.62509 12.0601C3.12479 10.5592 3.12497 8.12628 4.62563 6.62563C6.12646 5.1248 8.55978 5.12479 10.0606 6.62561ZM14.4999 17.299L11.751 20.0479C11.4032 20.3957 10.8394 20.3957 10.4916 20.0479L3.57522 13.1315L3.56497 13.1213C1.47834 11.0347 1.47834 7.65159 3.56497 5.56497C5.65158 3.47835 9.03464 3.47835 11.1213 5.56494C13.2079 3.47834 16.591 3.47835 18.6776 5.56497C20.1781 7.06549 20.5996 9.23648 19.942 11.1136C20.389 11.2435 20.8105 11.4846 21.1629 11.837C22.279 12.9531 22.279 14.7626 21.163 15.8787L17.4581 19.5836C17.2721 19.7696 16.9705 19.7696 16.7845 19.5836L14.4999 17.299Z" fill="white"/>
<path d="M11.1213 7.68625L10.0606 8.74692L11.1213 9.80756L12.1819 8.74692L11.1213 7.68625ZM10.0606 6.62561L8.99996 7.68628L8.99996 7.68628L10.0606 6.62561ZM12.1819 6.62561L11.1213 5.56494L12.1819 6.62561ZM17.6169 6.62563L18.6776 5.56497L18.6776 5.56497L17.6169 6.62563ZM18.306 11.1244L18.7435 12.5592L19.344 12.3761L19.6351 11.8198L18.306 11.1244ZM17.1213 11.837L16.0606 12.8977L17.1213 13.9583L18.1819 12.8977L17.1213 11.837ZM13.0796 11.837L14.1403 12.8977H14.1403L13.0796 11.837ZM13.0796 15.8787L12.019 16.9394L12.0203 16.9407L13.0796 15.8787ZM13.0851 15.8842L14.1458 14.8235L14.1444 14.8221L13.0851 15.8842ZM13.4393 16.2383L14.4999 17.299L15.5606 16.2383L14.4999 15.1777L13.4393 16.2383ZM11.1213 18.5563L10.0607 19.617L11.1213 20.6776L12.182 19.617L11.1213 18.5563ZM4.63588 12.0709L5.69654 11.0102L5.69499 11.0086L4.63588 12.0709ZM4.6345 12.0695L3.57534 13.1316L3.57539 13.1317L4.6345 12.0695ZM4.62563 12.0606L3.56496 13.1213L3.56647 13.1228L4.62563 12.0606ZM4.62509 12.0601L3.56422 13.1205L3.56443 13.1208L4.62509 12.0601ZM4.62563 6.62563L3.56497 5.56497L3.56497 5.56497L4.62563 6.62563ZM14.4999 17.299L15.5606 16.2383L14.4999 15.1777L13.4393 16.2383L14.4999 17.299ZM11.751 20.0479L12.8117 21.1086L12.8117 21.1086L11.751 20.0479ZM10.4916 20.0479L9.43097 21.1086L9.43097 21.1086L10.4916 20.0479ZM3.57522 13.1315L4.63588 12.0709L4.63448 12.0695L3.57522 13.1315ZM3.56497 13.1213L2.5043 14.182L2.50571 14.1834L3.56497 13.1213ZM3.56497 5.56497L4.62563 6.62563L3.56497 5.56497ZM11.1213 5.56494L10.0606 6.62561L11.1213 7.68625L12.1819 6.62561L11.1213 5.56494ZM18.6776 5.56497L19.7382 4.50431L19.7382 4.50431L18.6776 5.56497ZM19.942 11.1136L18.5264 10.6177L18.0028 12.1123L19.5235 12.5541L19.942 11.1136ZM21.1629 11.837L22.2236 10.7764V10.7764L21.1629 11.837ZM21.163 15.8787L22.2236 16.9394L22.2236 16.9394L21.163 15.8787ZM17.4581 19.5836L16.3974 18.5229L17.4581 19.5836ZM16.7845 19.5836L17.8452 18.5229L17.8452 18.5229L16.7845 19.5836ZM12.1819 6.62558L11.1213 5.56494L8.99996 7.68628L10.0606 8.74692L12.1819 6.62558ZM11.1213 5.56494L10.0606 6.62558L12.1819 8.74692L13.2426 7.68628L11.1213 5.56494ZM18.6776 5.56497C16.591 3.47835 13.2079 3.47834 11.1213 5.56494L13.2426 7.68628C14.1576 6.77124 15.6412 6.77124 16.5562 7.68629L18.6776 5.56497ZM19.6351 11.8198C20.6888 9.80605 20.3722 7.25962 18.6776 5.56497L16.5562 7.68629C17.2971 8.42716 17.44 9.5441 16.977 10.429L19.6351 11.8198ZM17.8685 9.68964C17.2055 9.89182 16.5816 10.2554 16.0606 10.7763L18.1819 12.8977C18.3467 12.7329 18.5395 12.6214 18.7435 12.5592L17.8685 9.68964ZM18.1819 10.7763C16.4801 9.0745 13.7208 9.07451 12.019 10.7764L14.1403 12.8977C14.6706 12.3674 15.5303 12.3674 16.0606 12.8977L18.1819 10.7763ZM12.019 10.7764C10.3171 12.4782 10.3171 15.2375 12.019 16.9394L14.1403 14.818C13.61 14.2877 13.61 13.428 14.1403 12.8977L12.019 10.7764ZM12.0203 16.9407L12.0258 16.9462L14.1444 14.8221L14.1389 14.8167L12.0203 16.9407ZM12.0244 16.9448L12.3786 17.299L14.4999 15.1777L14.1458 14.8235L12.0244 16.9448ZM12.182 19.617L14.4999 17.299L12.3786 15.1777L10.0607 17.4956L12.182 19.617ZM3.57522 13.1315L10.0607 19.617L12.182 17.4956L5.69654 11.0102L3.57522 13.1315ZM3.57539 13.1317L3.57678 13.1331L5.69499 11.0086L5.6936 11.0073L3.57539 13.1317ZM3.56647 13.1228L3.57534 13.1316L5.69366 11.0073L5.68479 10.9985L3.56647 13.1228ZM3.56443 13.1208L3.56497 13.1213L5.68629 11L5.68575 10.9994L3.56443 13.1208ZM3.56497 5.56497C1.47859 7.65134 1.47834 11.0339 3.56422 13.1205L5.68595 10.9996C4.77124 10.0846 4.77135 8.60122 5.68629 7.68629L3.56497 5.56497ZM11.1213 5.56494C9.03464 3.47834 5.65158 3.47835 3.56497 5.56497L5.68629 7.68629C6.60133 6.77124 8.08491 6.77124 8.99996 7.68628L11.1213 5.56494ZM13.4393 16.2383L10.6904 18.9873L12.8117 21.1086L15.5606 18.3597L13.4393 16.2383ZM10.6904 18.9873C10.9284 18.7492 11.3143 18.7492 11.5523 18.9873L9.43097 21.1086C10.3645 22.0421 11.8781 22.0421 12.8117 21.1086L10.6904 18.9873ZM11.5523 18.9873L4.63588 12.0709L2.51456 14.1922L9.43097 21.1086L11.5523 18.9873ZM4.63448 12.0695L4.62422 12.0592L2.50571 14.1834L2.51596 14.1936L4.63448 12.0695ZM4.62563 12.0606C3.12479 10.5598 3.12479 8.12646 4.62563 6.62563L2.50431 4.50431C-0.168102 7.17671 -0.168102 11.5095 2.50431 14.182L4.62563 12.0606ZM4.62563 6.62563C6.12646 5.1248 8.55978 5.12479 10.0606 6.62561L12.1819 4.50428C9.50951 1.8319 5.1767 1.83191 2.50431 4.50431L4.62563 6.62563ZM12.1819 6.62561C13.6828 5.12479 16.1161 5.1248 17.6169 6.62563L19.7382 4.50431C17.0658 1.83191 12.733 1.8319 10.0606 4.50428L12.1819 6.62561ZM17.6169 6.62563C18.6946 7.70332 19.0006 9.26386 18.5264 10.6177L21.3577 11.6096C22.1985 9.2091 21.6616 6.42766 19.7382 4.50431L17.6169 6.62563ZM22.2236 10.7764C21.6881 10.2408 21.044 9.87177 20.3605 9.6732L19.5235 12.5541C19.7341 12.6153 19.933 12.7284 20.1023 12.8977L22.2236 10.7764ZM22.2236 16.9394C23.9255 15.2375 23.9254 12.4782 22.2236 10.7764L20.1023 12.8977C20.6326 13.428 20.6326 14.2878 20.1023 14.8181L22.2236 16.9394ZM18.5188 20.6442L22.2236 16.9394L20.1023 14.818L16.3974 18.5229L18.5188 20.6442ZM15.7238 20.6442C16.4956 21.416 17.747 21.416 18.5188 20.6442L16.3974 18.5229C16.7972 18.1231 17.4454 18.1231 17.8452 18.5229L15.7238 20.6442ZM13.4393 18.3597L15.7238 20.6442L17.8452 18.5229L15.5606 16.2383L13.4393 18.3597Z" fill="#686C6F" mask="url(#path-1-inside-1_1_75)"/>
</svg>
