<svg width="52" height="50" viewBox="0 0 52 50" fill="none" xmlns="http://www.w3.org/2000/svg">
<path d="M52 11C52 4.92487 47.0751 0 41 0H38.3333C33.731 0 30 3.73096 30 8.33333V31.6667C30 41.7919 38.2081 50 48.3333 50C50.3584 50 52 48.3584 52 46.3333V11Z" fill="#2579D1"/>
<path d="M-9.61651e-07 39C-4.30546e-07 45.0751 4.92487 50 11 50L13.6667 50C18.269 50 22 46.269 22 41.6667L22 18.3333C22 8.20811 13.7919 -1.20572e-06 3.66666 -3.2055e-07C1.64162 -1.43515e-07 -4.22762e-06 1.64162 -4.05059e-06 3.66667L-9.61651e-07 39Z" fill="#FDBB64"/>
</svg>
