<svg width="24" height="25" viewBox="0 0 24 25" fill="none" xmlns="http://www.w3.org/2000/svg">
<path fill-rule="evenodd" clip-rule="evenodd" d="M6 2.5C3.79086 2.5 2 4.29086 2 6.5V10.5C2 11.6046 2.89543 12.5 4 12.5H5.5C6.32843 12.5 7 11.8284 7 11V10.5C7 9.94772 7.44772 9.5 8 9.5C8.55228 9.5 9 9.94772 9 10.5V10.8333C9 11.7538 9.74619 12.5 10.6667 12.5H12.3333C13.2538 12.5 14 11.7538 14 10.8333V10.5C14 9.94772 14.4477 9.5 15 9.5C15.5523 9.5 16 9.94772 16 10.5V11C16 11.8284 16.6716 12.5 17.5 12.5H19C20.1046 12.5 21 11.6046 21 10.5V6.5C21 4.29086 19.2091 2.5 17 2.5H6ZM3 14.75C3.41421 14.75 3.75 15.0858 3.75 15.5V18.5C3.75 20.2949 5.20507 21.75 7 21.75H16C17.7949 21.75 19.25 20.2949 19.25 18.5V15.5C19.25 15.0858 19.5858 14.75 20 14.75C20.4142 14.75 20.75 15.0858 20.75 15.5V18.5C20.75 21.1234 18.6234 23.25 16 23.25H7C4.37665 23.25 2.25 21.1234 2.25 18.5V15.5C2.25 15.0858 2.58579 14.75 3 14.75ZM9 16.75C9 16.3358 9.33579 16 9.75 16H13.25C13.6642 16 14 16.3358 14 16.75C14 17.1642 13.6642 17.5 13.25 17.5H9.75C9.33579 17.5 9 17.1642 9 16.75Z" fill="#2579D1"/>
</svg>
