<svg width="20" height="20" viewBox="0 0 20 20" fill="none" xmlns="http://www.w3.org/2000/svg">
<mask id="path-1-inside-1_23_5" fill="white">
<path fill-rule="evenodd" clip-rule="evenodd" d="M13 1.75833C13 0.787232 12.2128 0 11.2417 0H8.75835C7.78725 0 7.00001 0.787235 7.00001 1.75834C7.00001 3.11191 5.53473 3.95789 4.3625 3.2811C3.5215 2.79555 2.44612 3.0837 1.96056 3.9247L0.718897 6.07533C0.233349 6.91632 0.521495 7.9917 1.36249 8.47725C2.53471 9.15403 2.53471 10.846 1.36249 11.5228C0.521496 12.0083 0.23335 13.0837 0.718898 13.9247L1.96057 16.0753C2.44612 16.9163 3.5215 17.2045 4.3625 16.7189C5.53472 16.0421 7 16.8881 7 18.2417C7 19.2128 7.78724 20 8.75834 20H11.2417C12.2128 20 13 19.2128 13 18.2417C13 16.8881 14.4653 16.0421 15.6375 16.7189C16.4785 17.2045 17.5539 16.9163 18.0394 16.0753L19.2811 13.9247C19.7667 13.0837 19.4785 12.0083 18.6375 11.5228C17.4653 10.846 17.4653 9.15402 18.6375 8.47724C19.4785 7.99169 19.7667 6.9163 19.2811 6.0753L18.0395 3.92468C17.5539 3.08368 16.4785 2.79554 15.6375 3.28109C14.4653 3.95787 13 3.1119 13 1.75833Z"/>
</mask>
<path d="M19.2811 6.0753L17.9821 6.8253L19.2811 6.0753ZM8.75835 1.5H11.2417V-1.5H8.75835V1.5ZM2.01793 6.82533L3.2596 4.6747L0.661525 3.1747L-0.580142 5.32533L2.01793 6.82533ZM3.25961 15.3253L2.01794 13.1747L-0.58014 14.6747L0.661529 16.8253L3.25961 15.3253ZM11.2417 18.5H8.75834V21.5H11.2417V18.5ZM17.9821 13.1747L16.7404 15.3253L19.3385 16.8253L20.5801 14.6747L17.9821 13.1747ZM16.7404 4.67468L17.9821 6.8253L20.5802 5.3253L19.3385 3.17468L16.7404 4.67468ZM14.8875 1.98205C14.7153 2.08149 14.5 1.95719 14.5 1.75833H11.5C11.5 4.26661 14.2153 5.83425 16.3875 4.58013L14.8875 1.98205ZM19.3385 3.17468C18.4387 1.61624 16.446 1.08229 14.8875 1.98205L16.3875 4.58013C16.5111 4.50879 16.6691 4.55113 16.7404 4.67468L19.3385 3.17468ZM19.3875 9.77628C20.946 8.87652 21.4799 6.88375 20.5802 5.3253L17.9821 6.8253C18.0534 6.94886 18.0111 7.10686 17.8875 7.1782L19.3875 9.77628ZM19.3875 10.2237C19.2153 10.1243 19.2153 9.87572 19.3875 9.77628L17.8875 7.1782C15.7153 8.43233 15.7153 11.5677 17.8875 12.8218L19.3875 10.2237ZM20.5801 14.6747C21.4799 13.1163 20.9459 11.1235 19.3875 10.2237L17.8875 12.8218C18.0111 12.8931 18.0534 13.0511 17.9821 13.1747L20.5801 14.6747ZM14.8875 18.018C16.4459 18.9177 18.4387 18.3838 19.3385 16.8253L16.7404 15.3253C16.6691 15.4489 16.5111 15.4912 16.3875 15.4199L14.8875 18.018ZM14.5 18.2417C14.5 18.0428 14.7153 17.9185 14.8875 18.018L16.3875 15.4199C14.2153 14.1657 11.5 15.7334 11.5 18.2417H14.5ZM11.2417 21.5C13.0412 21.5 14.5 20.0412 14.5 18.2417H11.5C11.5 18.3843 11.3843 18.5 11.2417 18.5V21.5ZM5.5 18.2417C5.5 20.0412 6.95881 21.5 8.75834 21.5V18.5C8.61566 18.5 8.5 18.3843 8.5 18.2417H5.5ZM5.1125 18.0179C5.28472 17.9185 5.5 18.0428 5.5 18.2417H8.5C8.5 15.7334 5.78472 14.1657 3.6125 15.4199L5.1125 18.0179ZM0.661529 16.8253C1.56129 18.3837 3.55406 18.9177 5.1125 18.0179L3.6125 15.4199C3.48894 15.4912 3.33094 15.4489 3.25961 15.3253L0.661529 16.8253ZM0.612489 10.2237C-0.945943 11.1235 -1.4799 13.1162 -0.58014 14.6747L2.01794 13.1747C1.9466 13.0511 1.98893 12.8931 2.11249 12.8218L0.612489 10.2237ZM0.612489 9.77628C0.784706 9.87571 0.784705 10.1243 0.612489 10.2237L2.11249 12.8218C4.28471 11.5677 4.2847 8.43234 2.11249 7.17821L0.612489 9.77628ZM-0.580142 5.32533C-1.4799 6.88376 -0.945944 8.87652 0.612489 9.77628L2.11249 7.17821C1.98893 7.10687 1.9466 6.94888 2.01793 6.82533L-0.580142 5.32533ZM5.1125 1.98206C3.55406 1.0823 1.56129 1.61626 0.661525 3.1747L3.2596 4.6747C3.33094 4.55114 3.48894 4.5088 3.6125 4.58014L5.1125 1.98206ZM5.50001 1.75834C5.50001 1.9572 5.28473 2.0815 5.1125 1.98206L3.6125 4.58014C5.78473 5.83427 8.50001 4.26661 8.50001 1.75834H5.50001ZM11.2417 1.5C11.3844 1.5 11.5 1.61566 11.5 1.75833H14.5C14.5 -0.0411951 13.0412 -1.5 11.2417 -1.5V1.5ZM8.75835 -1.5C6.95882 -1.5 5.50001 -0.0411928 5.50001 1.75834H8.50001C8.50001 1.61566 8.61567 1.5 8.75835 1.5V-1.5Z" fill="#131E3F" mask="url(#path-1-inside-1_23_5)"/>
<circle cx="10" cy="10" r="2.25" stroke="#131E3F" stroke-width="1.5"/>
</svg>
