<svg width="24" height="25" viewBox="0 0 24 25" fill="none" xmlns="http://www.w3.org/2000/svg">
<path d="M15.4559 6.58621V7.08621H15.9559H17.496C18.3534 7.08621 19.0124 7.67074 19.0966 8.36425L19.0966 8.36425L19.0973 8.36975L20.4776 18.7744C20.7115 20.7152 19.0442 22.5 16.7797 22.5H7.22014C4.95566 22.5 3.28838 20.7152 3.52228 18.7743L4.90258 8.36975L4.90261 8.36975L4.90328 8.36425C4.98747 7.67074 5.64646 7.08621 6.50387 7.08621H8.04397H8.54397V6.58621V5.62069C8.54397 3.93794 10.0487 2.5 11.9999 2.5C13.9512 2.5 15.4559 3.93794 15.4559 5.62069V6.58621ZM14.8735 8.03448V7.53448H14.3735H9.62636H9.12636V8.03448V10.4483C9.12636 10.5313 9.03859 10.6724 8.83516 10.6724C8.63174 10.6724 8.54397 10.5313 8.54397 10.4483V8.03448V7.53448H8.04397H6.50387C6.01843 7.53448 5.5494 7.87338 5.48368 8.40045L4.1033 18.8056L4.10327 18.8056L4.1026 18.8111C3.88702 20.5869 5.3988 22.0517 7.22014 22.0517H16.7797C18.6011 22.0517 20.1129 20.5869 19.8973 18.8111L19.8973 18.8111L19.8966 18.8056L18.5162 8.40048C18.4505 7.87339 17.9815 7.53448 17.496 7.53448H15.9559H15.4559V8.03448V10.4483C15.4559 10.5313 15.3681 10.6724 15.1647 10.6724C14.9613 10.6724 14.8735 10.5313 14.8735 10.4483V8.03448ZM14.3735 7.08621H14.8735V6.58621V5.62069C14.8735 4.104 13.5444 2.94828 11.9999 2.94828C10.4555 2.94828 9.12636 4.104 9.12636 5.62069V6.58621V7.08621H9.62636H14.3735ZM9.33516 16C9.33516 15.917 9.42294 15.7759 9.62636 15.7759H14.3735C14.5769 15.7759 14.6647 15.917 14.6647 16C14.6647 16.083 14.5769 16.2241 14.3735 16.2241H9.62636C9.42293 16.2241 9.33516 16.083 9.33516 16Z" stroke="#686C6F"/>
</svg>
