<svg width="24" height="24" viewBox="0 0 24 24" fill="none" xmlns="http://www.w3.org/2000/svg">
<mask id="path-1-inside-1_1_101" fill="white">
<path fill-rule="evenodd" clip-rule="evenodd" d="M5.99947 2.00305C5.99703 1.99898 5.99113 1.99898 5.98869 2.00305C5.00738 3.63857 3.63857 5.00738 2.00305 5.98869C1.99898 5.99113 1.99898 5.99703 2.00305 5.99947C3.63857 6.98078 5.00738 8.34959 5.98869 9.98511C5.99113 9.98917 5.99703 9.98917 5.99946 9.98511C6.98078 8.34959 8.34959 6.98078 9.98511 5.99947C9.98917 5.99703 9.98917 5.99113 9.98511 5.98869C8.34959 5.00738 6.98078 3.63857 5.99947 2.00305ZM16.6586 2.00677C16.6551 2.00102 16.6468 2.00102 16.6433 2.00677C15.2555 4.31973 13.3197 6.25553 11.0068 7.64331C11.001 7.64676 11.001 7.65509 11.0068 7.65854C13.3197 9.04632 15.2555 10.9821 16.6433 13.2951C16.6468 13.3008 16.6551 13.3008 16.6586 13.2951C18.0463 10.9821 19.9821 9.04632 22.2951 7.65854C22.3008 7.65509 22.3008 7.64676 22.2951 7.64331C19.9821 6.25553 18.0463 4.31973 16.6586 2.00677ZM7.65856 11.0068C7.65511 11.001 7.64677 11.001 7.64332 11.0068C6.25554 13.3197 4.31975 15.2555 2.00678 16.6433C2.00103 16.6468 2.00103 16.6551 2.00678 16.6585C4.31975 18.0463 6.25554 19.9821 7.64332 22.2951C7.64677 22.3008 7.65511 22.3008 7.65856 22.2951C9.04634 19.9821 10.9821 18.0463 13.2951 16.6585C13.3008 16.6551 13.3008 16.6468 13.2951 16.6433C10.9821 15.2555 9.04634 13.3197 7.65856 11.0068ZM17.9887 14.003C17.9911 13.999 17.997 13.999 17.9995 14.003C18.9808 15.6386 20.3496 17.0074 21.9851 17.9887C21.9892 17.9911 21.9892 17.997 21.9851 17.9995C20.3496 18.9808 18.9808 20.3496 17.9995 21.9851C17.997 21.9892 17.9911 21.9892 17.9887 21.9851C17.0074 20.3496 15.6386 18.9808 14.003 17.9995C13.999 17.997 13.999 17.9911 14.003 17.9887C15.6386 17.0074 17.0074 15.6386 17.9887 14.003Z"/>
</mask>
<path d="M5.98869 2.00305L7.27493 2.77479L7.27495 2.77477L5.98869 2.00305ZM5.99947 2.00305L7.2857 1.23131L7.28569 1.23127L5.99947 2.00305ZM2.00305 5.98869L2.77477 7.27495L2.77479 7.27493L2.00305 5.98869ZM2.00305 5.99947L1.23127 7.28569L1.23131 7.2857L2.00305 5.99947ZM5.98869 9.98511L4.70245 10.7569L4.70247 10.7569L5.98869 9.98511ZM5.99946 9.98511L4.71323 9.21337L4.71321 9.21339L5.99946 9.98511ZM9.98511 5.99947L10.7569 7.2857L10.7569 7.28568L9.98511 5.99947ZM9.98511 5.98869L9.21337 7.27493L9.21339 7.27495L9.98511 5.98869ZM16.6433 2.00677L15.3571 1.23498L15.3571 1.23502L16.6433 2.00677ZM16.6586 2.00677L17.9448 1.23502L17.9448 1.23498L16.6586 2.00677ZM11.0068 7.64331L10.235 6.35707L10.2349 6.35713L11.0068 7.64331ZM11.0068 7.65854L10.235 8.94477L10.235 8.94478L11.0068 7.65854ZM16.6433 13.2951L17.9296 12.5233L16.6433 13.2951ZM16.6586 13.2951L15.3723 12.5233L16.6586 13.2951ZM22.2951 7.65854L23.0668 8.94478L22.2951 7.65854ZM22.2951 7.64331L21.5234 8.92955L21.5234 8.9296L22.2951 7.64331ZM7.64332 11.0068L8.92956 11.7785L8.92961 11.7784L7.64332 11.0068ZM7.65856 11.0068L6.37232 11.7785L7.65856 11.0068ZM2.00678 16.6433L2.77841 17.9296L2.77852 17.9296L2.00678 16.6433ZM2.00678 16.6585L1.23499 17.9448L1.23504 17.9448L2.00678 16.6585ZM7.64332 22.2951L6.35708 23.0668L6.3572 23.067L7.64332 22.2951ZM7.65856 22.2951L8.94473 23.0669L8.9448 23.0668L7.65856 22.2951ZM13.2951 16.6585L12.5234 15.3723L12.5234 15.3723L13.2951 16.6585ZM13.2951 16.6433L14.0669 15.3571L14.0668 15.3571L13.2951 16.6433ZM17.9995 14.003L16.7132 14.7747L16.7132 14.7748L17.9995 14.003ZM17.9887 14.003L16.7025 13.2312L16.7025 13.2313L17.9887 14.003ZM21.9851 17.9887L21.2134 19.2749L21.2135 19.275L21.9851 17.9887ZM21.9851 17.9995L21.2135 16.7132L21.2134 16.7132L21.9851 17.9995ZM17.9995 21.9851L19.2856 22.757L19.2857 22.7569L17.9995 21.9851ZM17.9887 21.9851L19.275 21.2135L19.2749 21.2134L17.9887 21.9851ZM14.003 17.9995L13.2313 19.2857L13.2313 19.2857L14.003 17.9995ZM14.003 17.9887L13.2313 16.7025L13.2313 16.7025L14.003 17.9887ZM7.27495 2.77477C6.69475 3.74181 5.29338 3.74166 4.71324 2.77482L7.28569 1.23127C6.70068 0.25631 5.28752 0.256155 4.70244 1.23133L7.27495 2.77477ZM2.77479 7.27493C4.62143 6.16695 6.16695 4.62143 7.27493 2.77479L4.70245 1.23131C3.84782 2.6557 2.6557 3.84782 1.23131 4.70245L2.77479 7.27493ZM2.77482 4.71324C3.7417 5.2934 3.74177 6.69477 2.77477 7.27495L1.23133 4.70244C0.256196 5.28749 0.256268 6.70065 1.23127 7.28569L2.77482 4.71324ZM7.27493 9.21337C6.16695 7.36672 4.62143 5.82121 2.77479 4.71323L1.23131 7.2857C2.6557 8.14034 3.84782 9.33246 4.70245 10.7569L7.27493 9.21337ZM4.71321 9.21339C5.2934 8.24637 6.69477 8.24648 7.27491 9.21333L4.70247 10.7569C5.2875 11.7319 6.70065 11.732 7.28572 10.7568L4.71321 9.21339ZM9.21337 4.71323C7.36672 5.82121 5.82121 7.36672 4.71323 9.21337L7.2857 10.7569C8.14034 9.33246 9.33246 8.14034 10.7569 7.2857L9.21337 4.71323ZM9.21339 7.27495C8.24637 6.69476 8.24648 5.29339 9.21333 4.71325L10.7569 7.28568C11.7319 6.70066 11.732 5.28751 10.7568 4.70244L9.21339 7.27495ZM4.71323 2.77479C5.82121 4.62143 7.36672 6.16695 9.21337 7.27493L10.7569 4.70245C9.33246 3.84782 8.14034 2.6557 7.2857 1.23131L4.71323 2.77479ZM17.9295 2.77856C17.3504 3.74372 15.9515 3.74379 15.3723 2.77856L17.9448 1.23498C17.3587 0.258242 15.9432 0.258319 15.3571 1.23498L17.9295 2.77856ZM11.7785 8.92955C14.3026 7.41509 16.4151 5.3026 17.9296 2.77851L15.3571 1.23502C14.096 3.33687 12.3369 5.09597 10.235 6.35707L11.7785 8.92955ZM11.7785 6.37231C12.7438 6.95151 12.7437 8.35036 11.7786 8.92949L10.2349 6.35713C9.25838 6.94316 9.25822 8.35868 10.235 8.94477L11.7785 6.37231ZM17.9296 12.5233C16.4151 9.99925 14.3026 7.88676 11.7785 6.3723L10.235 8.94478C12.3369 10.2059 14.096 11.965 15.3571 14.0668L17.9296 12.5233ZM15.3723 12.5233C15.9515 11.5581 17.3504 11.5581 17.9296 12.5233L15.3571 14.0668C15.9431 15.0436 17.3587 15.0436 17.9448 14.0668L15.3723 12.5233ZM21.5234 6.3723C18.9993 7.88676 16.8868 9.99925 15.3723 12.5233L17.9448 14.0668C19.2059 11.965 20.965 10.2059 23.0668 8.94478L21.5234 6.3723ZM21.5234 8.9296C20.558 8.35042 20.5582 6.95142 21.5234 6.3723L23.0668 8.94478C24.0435 8.35877 24.0437 6.9431 23.0668 6.35702L21.5234 8.9296ZM15.3723 2.77851C16.8868 5.3026 18.9993 7.41509 21.5234 8.92955L23.0668 6.35707C20.965 5.09597 19.2059 3.33687 17.9448 1.23502L15.3723 2.77851ZM8.92961 11.7784C8.35043 12.7439 6.95143 12.7437 6.37232 11.7785L8.9448 10.235C8.35878 9.25833 6.94311 9.25817 6.35704 10.2351L8.92961 11.7784ZM2.77852 17.9296C5.30262 16.4151 7.41511 14.3026 8.92956 11.7785L6.35708 10.235C5.09598 12.3369 3.33688 14.096 1.23504 15.3571L2.77852 17.9296ZM2.77857 15.3723C3.74359 15.9514 3.74399 17.3504 2.77841 17.9296L1.23515 15.357C0.258068 15.9431 0.258466 17.3588 1.23499 17.9448L2.77857 15.3723ZM8.92956 21.5233C7.41511 18.9993 5.30262 16.8868 2.77852 15.3723L1.23504 17.9448C3.33688 19.2059 5.09598 20.965 6.35708 23.0668L8.92956 21.5233ZM6.37238 21.5232C6.9516 20.5581 8.35029 20.5582 8.92945 21.5232L6.3572 23.067C6.94325 24.0435 8.35861 24.0436 8.94473 23.0669L6.37238 21.5232ZM12.5234 15.3723C9.99926 16.8868 7.88677 18.9993 6.37232 21.5233L8.9448 23.0668C10.2059 20.965 11.965 19.2059 14.0668 17.9448L12.5234 15.3723ZM12.5233 17.9295C11.5583 17.3504 11.5579 15.9515 12.5234 15.3723L14.0668 17.9448C15.0438 17.3587 15.0434 15.9431 14.0669 15.3571L12.5233 17.9295ZM6.37232 11.7785C7.88677 14.3026 9.99926 16.4151 12.5234 17.9295L14.0668 15.3571C11.965 14.096 10.2059 12.3369 8.9448 10.235L6.37232 11.7785ZM19.2858 13.2314C18.7006 12.256 17.2875 12.2565 16.7025 13.2312L19.2749 14.7749C18.6948 15.7415 17.2934 15.742 16.7132 14.7747L19.2858 13.2314ZM22.7569 16.7025C21.3325 15.8478 20.1403 14.6557 19.2857 13.2313L16.7132 14.7748C17.8212 16.6214 19.3667 18.1669 21.2134 19.2749L22.7569 16.7025ZM22.7568 19.2858C23.732 18.7007 23.732 17.2874 22.7568 16.7024L21.2135 19.275C20.2464 18.6948 20.2464 17.2933 21.2135 16.7132L22.7568 19.2858ZM19.2857 22.7569C20.1403 21.3325 21.3325 20.1403 22.7569 19.2857L21.2134 16.7132C19.3667 17.8212 17.8212 19.3667 16.7132 21.2134L19.2857 22.7569ZM16.7024 22.7568C17.2875 23.7321 18.7007 23.7317 19.2856 22.757L16.7133 21.2132C17.2934 20.2467 18.6947 20.2462 19.275 21.2135L16.7024 22.7568ZM13.2313 19.2857C14.6557 20.1403 15.8478 21.3325 16.7025 22.7569L19.2749 21.2134C18.1669 19.3667 16.6214 17.8212 14.7748 16.7132L13.2313 19.2857ZM13.2313 16.7025C12.2562 17.2875 12.2562 18.7006 13.2313 19.2857L14.7748 16.7133C15.7417 17.2934 15.7417 18.6947 14.7748 19.2749L13.2313 16.7025ZM16.7025 13.2313C15.8478 14.6557 14.6557 15.8478 13.2313 16.7025L14.7748 19.2749C16.6214 18.1669 18.1669 16.6214 19.2749 14.7748L16.7025 13.2313Z" fill="#66696F" mask="url(#path-1-inside-1_1_101)"/>
</svg>
