<svg width="14" height="14" viewBox="0 0 14 14" fill="none" xmlns="http://www.w3.org/2000/svg">
<mask id="path-1-inside-1_1_157" fill="white">
<path fill-rule="evenodd" clip-rule="evenodd" d="M6.75 0C7.16421 0 7.5 0.335786 7.5 0.75V2.02469C8.32869 2.10696 9.09786 2.39157 9.75741 2.82841L10.7123 1.87347C11.0052 1.58058 11.4801 1.58058 11.773 1.87347C12.0659 2.16636 12.0659 2.64124 11.773 2.93413L10.8715 3.83565C11.3756 4.45173 11.7356 5.19034 11.9 6H13.25C13.6642 6 14 6.33579 14 6.75C14 7.16421 13.6642 7.5 13.25 7.5H11.9753C11.893 8.32867 11.6084 9.09783 11.1716 9.75737L12.1265 10.7123C12.4194 11.0052 12.4194 11.4801 12.1265 11.7729C11.8336 12.0658 11.3588 12.0658 11.0659 11.7729L10.1644 10.8715C9.42359 11.4777 8.50562 11.8755 7.5 11.9753V13.25C7.5 13.6642 7.16421 14 6.75 14C6.33579 14 6 13.6642 6 13.25V11.9C5.19034 11.7356 4.45173 11.3756 3.83565 10.8715L2.93417 11.773C2.64128 12.0659 2.1664 12.0659 1.87351 11.773C1.58062 11.4801 1.58062 11.0052 1.87351 10.7123L2.82841 9.75741C2.39157 9.09786 2.10696 8.32869 2.02469 7.5H0.75C0.335787 7.5 0 7.16421 0 6.75C0 6.33579 0.335787 6 0.75 6H2.10002C2.26437 5.19033 2.62438 4.4517 3.12854 3.83562L2.22704 2.93411C1.93414 2.64122 1.93414 2.16634 2.22704 1.87345C2.51993 1.58056 2.9948 1.58056 3.2877 1.87345L4.24263 2.82838C4.76743 2.4808 5.36163 2.2296 6 2.10002V0.75C6 0.335786 6.33579 0 6.75 0Z"/>
</mask>
<path fill-rule="evenodd" clip-rule="evenodd" d="M6.75 0C7.16421 0 7.5 0.335786 7.5 0.75V2.02469C8.32869 2.10696 9.09786 2.39157 9.75741 2.82841L10.7123 1.87347C11.0052 1.58058 11.4801 1.58058 11.773 1.87347C12.0659 2.16636 12.0659 2.64124 11.773 2.93413L10.8715 3.83565C11.3756 4.45173 11.7356 5.19034 11.9 6H13.25C13.6642 6 14 6.33579 14 6.75C14 7.16421 13.6642 7.5 13.25 7.5H11.9753C11.893 8.32867 11.6084 9.09783 11.1716 9.75737L12.1265 10.7123C12.4194 11.0052 12.4194 11.4801 12.1265 11.7729C11.8336 12.0658 11.3588 12.0658 11.0659 11.7729L10.1644 10.8715C9.42359 11.4777 8.50562 11.8755 7.5 11.9753V13.25C7.5 13.6642 7.16421 14 6.75 14C6.33579 14 6 13.6642 6 13.25V11.9C5.19034 11.7356 4.45173 11.3756 3.83565 10.8715L2.93417 11.773C2.64128 12.0659 2.1664 12.0659 1.87351 11.773C1.58062 11.4801 1.58062 11.0052 1.87351 10.7123L2.82841 9.75741C2.39157 9.09786 2.10696 8.32869 2.02469 7.5H0.75C0.335787 7.5 0 7.16421 0 6.75C0 6.33579 0.335787 6 0.75 6H2.10002C2.26437 5.19033 2.62438 4.4517 3.12854 3.83562L2.22704 2.93411C1.93414 2.64122 1.93414 2.16634 2.22704 1.87345C2.51993 1.58056 2.9948 1.58056 3.2877 1.87345L4.24263 2.82838C4.76743 2.4808 5.36163 2.2296 6 2.10002V0.75C6 0.335786 6.33579 0 6.75 0Z" fill="#F5F5F5"/>
<path d="M7.5 2.02469H6.5V2.93032L7.4012 3.01979L7.5 2.02469ZM9.75741 2.82841L9.20521 3.66212L9.8866 4.11343L10.4645 3.53552L9.75741 2.82841ZM10.7123 1.87347L11.4195 2.58058L11.4195 2.58058L10.7123 1.87347ZM11.773 1.87347L11.0659 2.58058L11.0659 2.58058L11.773 1.87347ZM11.773 2.93413L11.0659 2.22702L11.0659 2.22702L11.773 2.93413ZM10.8715 3.83565L10.1644 3.12854L9.5244 3.76852L10.0976 4.46895L10.8715 3.83565ZM11.9 6L10.92 6.19893L11.0826 7H11.9V6ZM11.9753 7.5V6.5H11.0697L10.9802 7.4012L11.9753 7.5ZM11.1716 9.75737L10.3379 9.20519L9.8866 9.88657L10.4645 10.4645L11.1716 9.75737ZM10.1644 10.8715L10.8715 10.1644L10.2315 9.52437L9.53108 10.0976L10.1644 10.8715ZM7.5 11.9753L7.4012 10.9802L6.5 11.0697V11.9753H7.5ZM6 11.9H7V11.0826L6.19893 10.92L6 11.9ZM3.83565 10.8715L4.46895 10.0976L3.76852 9.5244L3.12854 10.1644L3.83565 10.8715ZM2.93417 11.773L2.22706 11.0659L2.22706 11.0659L2.93417 11.773ZM1.87351 11.773L2.58062 11.0659L2.58062 11.0659L1.87351 11.773ZM1.87351 10.7123L1.1664 10.0052L1.1664 10.0052L1.87351 10.7123ZM2.82841 9.75741L3.53551 10.4645L4.11343 9.8866L3.66212 9.20521L2.82841 9.75741ZM2.02469 7.5L3.01979 7.4012L2.93032 6.5H2.02469V7.5ZM0.75 7.5L0.749999 8.5H0.75V7.5ZM0.75 6L0.749999 7H0.75V6ZM2.10002 6V7H2.91742L3.08003 6.19893L2.10002 6ZM3.12854 3.83562L3.90244 4.46892L4.47563 3.76849L3.83565 3.12851L3.12854 3.83562ZM2.22704 2.93411L2.93414 2.227L2.93414 2.227L2.22704 2.93411ZM2.22704 1.87345L1.51993 1.16634L1.51993 1.16634L2.22704 1.87345ZM3.2877 1.87345L2.58059 2.58056L2.58059 2.58056L3.2877 1.87345ZM4.24263 2.82838L3.53552 3.53549L4.11343 4.1134L4.79481 3.66211L4.24263 2.82838ZM6 2.10002L6.19893 3.08003L7 2.91742V2.10002H6ZM8.5 0.75C8.5 -0.216498 7.7165 -1 6.75 -1V1C6.61193 1 6.5 0.888071 6.5 0.75H8.5ZM8.5 2.02469V0.75H6.5V2.02469H8.5ZM7.4012 3.01979C8.06351 3.08555 8.6777 3.31274 9.20521 3.66212L10.3096 1.99469C9.51802 1.47041 8.59387 1.12838 7.5988 1.02958L7.4012 3.01979ZM10.0052 1.16636L9.0503 2.1213L10.4645 3.53552L11.4195 2.58058L10.0052 1.16636ZM12.4801 1.16636C11.7967 0.482945 10.6887 0.482945 10.0052 1.16636L11.4195 2.58058C11.3218 2.67821 11.1635 2.67821 11.0659 2.58058L12.4801 1.16636ZM12.4801 3.64124C13.1635 2.95782 13.1635 1.84978 12.4801 1.16636L11.0659 2.58058C10.9683 2.48295 10.9683 2.32465 11.0659 2.22702L12.4801 3.64124ZM11.5786 4.54276L12.4801 3.64124L11.0659 2.22702L10.1644 3.12854L11.5786 4.54276ZM10.0976 4.46895C10.5014 4.96247 10.7888 5.55281 10.92 6.19893L12.88 5.80107C12.6824 4.82787 12.2498 3.94098 11.6454 3.20235L10.0976 4.46895ZM13.25 5H11.9V7H13.25V5ZM15 6.75C15 5.7835 14.2165 5 13.25 5V7C13.1119 7 13 6.88807 13 6.75H15ZM13.25 8.5C14.2165 8.5 15 7.7165 15 6.75H13C13 6.61193 13.1119 6.5 13.25 6.5V8.5ZM11.9753 8.5H13.25V6.5H11.9753V8.5ZM10.9802 7.4012C10.9144 8.06349 10.6873 8.67768 10.3379 9.20519L12.0053 10.3096C12.5296 9.51798 12.8716 8.59385 12.9704 7.5988L10.9802 7.4012ZM12.8336 10.0052L11.8787 9.05026L10.4645 10.4645L11.4194 11.4194L12.8336 10.0052ZM12.8336 12.4801C13.5171 11.7966 13.5171 10.6886 12.8336 10.0052L11.4194 11.4194C11.3218 11.3218 11.3218 11.1635 11.4194 11.0658L12.8336 12.4801ZM10.3588 12.4801C11.0422 13.1635 12.1502 13.1635 12.8336 12.4801L11.4194 11.0658C11.5171 10.9682 11.6753 10.9682 11.773 11.0658L10.3588 12.4801ZM9.45728 11.5786L10.3588 12.4801L11.773 11.0658L10.8715 10.1644L9.45728 11.5786ZM9.53108 10.0976C8.93784 10.583 8.2045 10.9004 7.4012 10.9802L7.5988 12.9704C8.80674 12.8505 9.90934 12.3723 10.7977 11.6454L9.53108 10.0976ZM8.5 13.25V11.9753H6.5V13.25H8.5ZM6.75 15C7.7165 15 8.5 14.2165 8.5 13.25H6.5C6.5 13.1119 6.61193 13 6.75 13V15ZM5 13.25C5 14.2165 5.7835 15 6.75 15V13C6.88807 13 7 13.1119 7 13.25H5ZM5 11.9V13.25H7V11.9H5ZM6.19893 10.92C5.55281 10.7888 4.96247 10.5014 4.46895 10.0976L3.20235 11.6454C3.94098 12.2498 4.82787 12.6824 5.80107 12.88L6.19893 10.92ZM3.64128 12.4801L4.54276 11.5786L3.12854 10.1644L2.22706 11.0659L3.64128 12.4801ZM1.1664 12.4801C1.84982 13.1635 2.95786 13.1635 3.64128 12.4801L2.22706 11.0659C2.32469 10.9682 2.48299 10.9682 2.58062 11.0659L1.1664 12.4801ZM1.1664 10.0052C0.482987 10.6886 0.482986 11.7967 1.1664 12.4801L2.58062 11.0659C2.67825 11.1635 2.67825 11.3218 2.58062 11.4194L1.1664 10.0052ZM2.1213 9.0503L1.1664 10.0052L2.58062 11.4194L3.53551 10.4645L2.1213 9.0503ZM3.66212 9.20521C3.31274 8.6777 3.08555 8.06351 3.01979 7.4012L1.02958 7.5988C1.12838 8.59387 1.47041 9.51802 1.99469 10.3096L3.66212 9.20521ZM0.75 8.5H2.02469V6.5H0.75V8.5ZM-1 6.75C-1 7.7165 -0.216498 8.5 0.749999 8.5L0.750001 6.5C0.888071 6.5 1 6.61193 1 6.75H-1ZM0.750001 5C-0.216498 5 -1 5.7835 -1 6.75H1C1 6.88807 0.888072 7 0.749999 7L0.750001 5ZM2.10002 5H0.75V7H2.10002V5ZM3.08003 6.19893C3.21119 5.5528 3.49858 4.96245 3.90244 4.46892L2.35464 3.20231C1.75019 3.94095 1.31756 4.82785 1.12001 5.80107L3.08003 6.19893ZM1.51993 3.64122L2.42144 4.54272L3.83565 3.12851L2.93414 2.227L1.51993 3.64122ZM1.51993 1.16634C0.836512 1.84976 0.836513 2.9578 1.51993 3.64122L2.93414 2.227C3.03177 2.32463 3.03177 2.48292 2.93414 2.58056L1.51993 1.16634ZM3.9948 1.16634C3.31139 0.482925 2.20335 0.482925 1.51993 1.16634L2.93414 2.58056C2.83651 2.67819 2.67822 2.67819 2.58059 2.58056L3.9948 1.16634ZM4.94974 2.12128L3.9948 1.16634L2.58059 2.58056L3.53552 3.53549L4.94974 2.12128ZM4.79481 3.66211C5.21473 3.38399 5.68937 3.18347 6.19893 3.08003L5.80107 1.12C5.03389 1.27573 4.32013 1.57761 3.69045 1.99466L4.79481 3.66211ZM5 0.75V2.10002H7V0.75H5ZM6.75 -1C5.7835 -1 5 -0.216498 5 0.75H7C7 0.888071 6.88807 1 6.75 1V-1Z" fill="#877BD1" mask="url(#path-1-inside-1_1_157)"/>
</svg>
